<?xml version="1.0" standalone="no"?>
<!DOCTYPE svg PUBLIC "-//W3C//DTD SVG 20010904//EN"
 "http://www.w3.org/TR/2001/REC-SVG-20010904/DTD/svg10.dtd">
<svg version="1.0" xmlns="http://www.w3.org/2000/svg"
 width="128.000000pt" height="128.000000pt" viewBox="0 0 128.000000 128.000000"
 preserveAspectRatio="xMidYMid meet">
<metadata>
Created by potrace 1.11, written by Peter Selinger 2001-2013
</metadata>
<g transform="translate(0.000000,128.000000) scale(0.100000,-0.100000)"
fill="#000000" stroke="none">
<path d="M473 949 c-87 -50 -166 -99 -175 -111 -16 -18 -18 -44 -18 -214 l0
-193 33 -25 c44 -34 116 -66 149 -66 15 0 39 11 55 24 l28 24 0 194 0 193 -27
3 -28 3 0 -180 c0 -209 -4 -222 -66 -196 -19 8 -47 23 -62 34 l-27 19 0 171
c0 98 4 174 10 180 6 5 74 46 153 91 l142 82 98 -58 c53 -31 117 -68 142 -82
25 -13 49 -28 54 -33 13 -12 14 -338 1 -355 -5 -7 -74 -49 -153 -94 l-142 -82
-43 25 c-39 23 -44 24 -71 10 l-28 -15 53 -32 c30 -18 64 -35 76 -38 16 -4 65
18 180 83 87 50 166 99 175 110 14 16 17 47 18 204 0 109 -4 193 -10 204 -5
11 -67 52 -137 92 -71 40 -139 80 -153 89 -52 35 -62 32 -227 -61z"/>
<path d="M643 776 c-40 -18 -63 -53 -59 -89 6 -48 36 -68 127 -84 85 -15 109
-25 109 -48 0 -21 -24 -34 -76 -40 -56 -6 -94 8 -109 43 -10 23 -49 30 -60 11
-4 -5 -1 -24 5 -40 35 -83 234 -93 286 -14 11 18 14 35 10 60 -9 45 -47 70
-119 79 -75 10 -115 25 -113 42 4 24 22 36 62 39 52 3 89 -11 102 -39 9 -21
42 -29 57 -14 11 11 -18 67 -42 84 -35 23 -139 29 -180 10z"/>
</g>
</svg>
